<?xml version="1.0" encoding="UTF-8" standalone="no"?>
<!-- Created with Inkscape (http://www.inkscape.org/) -->

<svg
   xmlns:dc="http://purl.org/dc/elements/1.1/"
   xmlns:cc="http://creativecommons.org/ns#"
   xmlns:rdf="http://www.w3.org/1999/02/22-rdf-syntax-ns#"
   xmlns:svg="http://www.w3.org/2000/svg"
   xmlns="http://www.w3.org/2000/svg"
   xmlns:sodipodi="http://sodipodi.sourceforge.net/DTD/sodipodi-0.dtd"
   xmlns:inkscape="http://www.inkscape.org/namespaces/inkscape"
   width="245.35483"
   height="103.41936"
   id="svg2"
   version="1.1"
   inkscape:version="0.48.1 r9760"
   sodipodi:docname="New document 1">
  <defs
     id="defs4" />
  <sodipodi:namedview
     id="base"
     pagecolor="#ffffff"
     bordercolor="#666666"
     borderopacity="1.0"
     inkscape:pageopacity="0.0"
     inkscape:pageshadow="2"
     inkscape:zoom="1.24"
     inkscape:cx="229.60138"
     inkscape:cy="-170.45378"
     inkscape:document-units="px"
     inkscape:current-layer="layer1"
     showgrid="false"
     showguides="true"
     fit-margin-top="0"
     fit-margin-left="0"
     fit-margin-right="0"
     fit-margin-bottom="0"
     inkscape:window-width="1920"
     inkscape:window-height="1023"
     inkscape:window-x="0"
     inkscape:window-y="26"
     inkscape:window-maximized="1">
    <inkscape:grid
       type="xygrid"
       id="grid3856"
       empspacing="5"
       visible="true"
       enabled="true"
       snapvisiblegridlinesonly="true" />
  </sodipodi:namedview>
  <metadata
     id="metadata7">
    <rdf:RDF>
      <cc:Work
         rdf:about="">
        <dc:format>image/svg+xml</dc:format>
        <dc:type
           rdf:resource="http://purl.org/dc/dcmitype/StillImage" />
        <dc:title></dc:title>
      </cc:Work>
    </rdf:RDF>
  </metadata>
  <g
     inkscape:label="Layer 1"
     inkscape:groupmode="layer"
     id="layer1"
     transform="translate(-5.1451614,-78.475079)">
    <path
       sodipodi:type="arc"
       style="fill:#000000;fill-opacity:1;stroke:#000000;stroke-width:3.54330707;stroke-linecap:butt;stroke-linejoin:miter;stroke-miterlimit:4;stroke-opacity:1;stroke-dasharray:none;stroke-dashoffset:0"
       id="path2987"
       sodipodi:cx="141.12903"
       sodipodi:cy="113.24928"
       sodipodi:rx="34.677418"
       sodipodi:ry="30.241936"
       d="m 175.80645,113.24928 c 0,16.70216 -15.52561,30.24194 -34.67742,30.24194 -19.15181,0 -34.67742,-13.53978 -34.67742,-30.24194 0,-16.702157 15.52561,-30.241933 34.67742,-30.241933 19.15181,0 34.67742,13.539776 34.67742,30.241933"
       transform="matrix(0.21295982,0,0,0.21295982,-6.3223452,98.176243)" />
    <path
       sodipodi:type="arc"
       style="fill:#999999;fill-opacity:1;stroke:#000000;stroke-width:3.54330707;stroke-linecap:butt;stroke-linejoin:miter;stroke-miterlimit:4;stroke-opacity:1;stroke-dasharray:none;stroke-dashoffset:0"
       id="path2987-4"
       sodipodi:cx="141.12903"
       sodipodi:cy="113.24928"
       sodipodi:rx="34.677418"
       sodipodi:ry="30.241936"
       d="m 175.80645,113.24928 c 0,16.70216 -15.52561,30.24194 -34.67742,30.24194 -19.15181,0 -34.67742,-13.53978 -34.67742,-30.24194 0,-16.702157 15.52561,-30.241933 34.67742,-30.241933 19.15181,0 34.67742,13.539776 34.67742,30.241933 z"
       transform="matrix(0.21295982,0,0,0.21295982,10.508351,98.35142)" />
    <path
       sodipodi:type="arc"
       style="fill:#cccccc;fill-opacity:1;stroke:#000000;stroke-width:3.54330707;stroke-linecap:butt;stroke-linejoin:miter;stroke-miterlimit:4;stroke-opacity:1;stroke-dasharray:none;stroke-dashoffset:0"
       id="path2987-4-9"
       sodipodi:cx="141.12903"
       sodipodi:cy="113.24928"
       sodipodi:rx="34.677418"
       sodipodi:ry="30.241936"
       d="m 175.80645,113.24928 c 0,16.70216 -15.52561,30.24194 -34.67742,30.24194 -19.15181,0 -34.67742,-13.53978 -34.67742,-30.24194 0,-16.702157 15.52561,-30.241933 34.67742,-30.241933 19.15181,0 34.67742,13.539776 34.67742,30.241933 z"
       transform="matrix(0.21295982,0,0,0.21295982,26.995563,98.949081)" />
    <path
       sodipodi:type="arc"
       style="fill:#00ff00;fill-opacity:1;stroke:#000000;stroke-width:3.54330707;stroke-linecap:butt;stroke-linejoin:miter;stroke-miterlimit:4;stroke-opacity:1;stroke-dasharray:none;stroke-dashoffset:0"
       id="path2987-4-9-6"
       sodipodi:cx="141.12903"
       sodipodi:cy="113.24928"
       sodipodi:rx="34.677418"
       sodipodi:ry="30.241936"
       d="m 175.80645,113.24928 c 0,16.70216 -15.52561,30.24194 -34.67742,30.24194 -19.15181,0 -34.67742,-13.53978 -34.67742,-30.24194 0,-16.702157 15.52561,-30.241933 34.67742,-30.241933 19.15181,0 34.67742,13.539776 34.67742,30.241933 z"
       transform="matrix(0.21295982,0,0,0.21295982,37.471813,71.113172)" />
    <path
       sodipodi:type="arc"
       style="fill:#b3b3b3;fill-opacity:1;stroke:#000000;stroke-width:3.54330707;stroke-linecap:butt;stroke-linejoin:miter;stroke-miterlimit:4;stroke-opacity:1;stroke-dasharray:none;stroke-dashoffset:0"
       id="path2987-4-9-0"
       sodipodi:cx="141.12903"
       sodipodi:cy="113.24928"
       sodipodi:rx="34.677418"
       sodipodi:ry="30.241936"
       d="m 175.80645,113.24928 c 0,16.70216 -15.52561,30.24194 -34.67742,30.24194 -19.15181,0 -34.67742,-13.53978 -34.67742,-30.24194 0,-16.702157 15.52561,-30.241933 34.67742,-30.241933 19.15181,0 34.67742,13.539776 34.67742,30.241933 z"
       transform="matrix(0.21295982,0,0,0.21295982,56.019926,71.284913)" />
    <path
       sodipodi:type="arc"
       style="fill:#000000;fill-opacity:1;stroke:#000000;stroke-width:3.54330707;stroke-linecap:butt;stroke-linejoin:miter;stroke-miterlimit:4;stroke-opacity:1;stroke-dasharray:none;stroke-dashoffset:0"
       id="path2987-4-9-4"
       sodipodi:cx="141.12903"
       sodipodi:cy="113.24928"
       sodipodi:rx="34.677418"
       sodipodi:ry="30.241936"
       d="m 175.80645,113.24928 c 0,16.70216 -15.52561,30.24194 -34.67742,30.24194 -19.15181,0 -34.67742,-13.53978 -34.67742,-30.24194 0,-16.702157 15.52561,-30.241933 34.67742,-30.241933 19.15181,0 34.67742,13.539776 34.67742,30.241933 z"
       transform="matrix(0.21295982,0,0,0.21295982,74.911524,71.284913)" />
    <path
       sodipodi:type="arc"
       style="fill:#00ff00;fill-opacity:1;stroke:#000000;stroke-width:3.54330707;stroke-linecap:butt;stroke-linejoin:miter;stroke-miterlimit:4;stroke-opacity:1;stroke-dasharray:none;stroke-dashoffset:0"
       id="path2987-4-9-6-7"
       sodipodi:cx="141.12903"
       sodipodi:cy="113.24928"
       sodipodi:rx="34.677418"
       sodipodi:ry="30.241936"
       d="m 175.80645,113.24928 c 0,16.70216 -15.52561,30.24194 -34.67742,30.24194 -19.15181,0 -34.67742,-13.53978 -34.67742,-30.24194 0,-16.702157 15.52561,-30.241933 34.67742,-30.241933 19.15181,0 34.67742,13.539776 34.67742,30.241933 z"
       transform="matrix(0.21295982,0,0,0.21295982,37.602336,126.04307)" />
    <path
       sodipodi:type="arc"
       style="fill:#b3b3b3;fill-opacity:1;stroke:#000000;stroke-width:3.54330707;stroke-linecap:butt;stroke-linejoin:miter;stroke-miterlimit:4;stroke-opacity:1;stroke-dasharray:none;stroke-dashoffset:0"
       id="path2987-4-9-0-8"
       sodipodi:cx="141.12903"
       sodipodi:cy="113.24928"
       sodipodi:rx="34.677418"
       sodipodi:ry="30.241936"
       d="m 175.80645,113.24928 c 0,16.70216 -15.52561,30.24194 -34.67742,30.24194 -19.15181,0 -34.67742,-13.53978 -34.67742,-30.24194 0,-16.702157 15.52561,-30.241933 34.67742,-30.241933 19.15181,0 34.67742,13.539776 34.67742,30.241933 z"
       transform="matrix(0.21295982,0,0,0.21295982,56.150449,126.21481)" />
    <path
       sodipodi:type="arc"
       style="fill:#000000;fill-opacity:1;stroke:#000000;stroke-width:3.54330707;stroke-linecap:butt;stroke-linejoin:miter;stroke-miterlimit:4;stroke-opacity:1;stroke-dasharray:none;stroke-dashoffset:0"
       id="path2987-4-9-4-2"
       sodipodi:cx="141.12903"
       sodipodi:cy="113.24928"
       sodipodi:rx="34.677418"
       sodipodi:ry="30.241936"
       d="m 175.80645,113.24928 c 0,16.70216 -15.52561,30.24194 -34.67742,30.24194 -19.15181,0 -34.67742,-13.53978 -34.67742,-30.24194 0,-16.702157 15.52561,-30.241933 34.67742,-30.241933 19.15181,0 34.67742,13.539776 34.67742,30.241933 z"
       transform="matrix(0.21295982,0,0,0.21295982,75.042047,126.21481)" />
    <rect
       style="fill:#000000;fill-opacity:1;stroke:none"
       id="rect3861"
       width="2.3700368"
       height="2.1295981"
       x="47.845016"
       y="121.85069" />
    <rect
       style="fill:#000000;fill-opacity:1;stroke:none"
       id="rect3861-7"
       width="2.3700368"
       height="2.1295981"
       x="30.883797"
       y="121.19808" />
    <rect
       style="fill:#000000;fill-opacity:1;stroke:none"
       id="rect3861-1"
       width="17.126535"
       height="1.3917524"
       x="-90.195129"
       y="103.88535"
       transform="matrix(0.44701852,-0.8945247,0.93900615,0.34390035,0,0)" />
    <rect
       style="fill:#000000;fill-opacity:1;stroke:none"
       id="rect3861-0"
       width="4.2591963"
       height="2.1295981"
       x="74.671082"
       y="93.925484" />
    <rect
       style="fill:#000000;fill-opacity:1;stroke:none"
       id="rect3861-5"
       width="4.2591963"
       height="2.1295981"
       x="93.390945"
       y="93.753738" />
    <rect
       style="fill:#000000;fill-opacity:1;stroke:none"
       id="rect3861-2"
       width="4.2591963"
       height="2.1295981"
       x="75.014565"
       y="148.97217" />
    <rect
       style="fill:#000000;fill-opacity:1;stroke:none"
       id="rect3861-79"
       width="4.2591963"
       height="2.1295981"
       x="93.390938"
       y="149.48738" />
    <rect
       style="fill:#000000;fill-opacity:1;stroke:none"
       id="rect3861-1-8"
       width="17.126535"
       height="1.3917524"
       x="-159.19801"
       y="6.0517716"
       transform="matrix(-0.44701852,-0.8945247,-0.93900615,0.34390035,0,0)" />
    <text
       xml:space="preserve"
       style="font-size:8px;font-style:normal;font-variant:normal;font-weight:normal;font-stretch:normal;line-height:125%;letter-spacing:0px;word-spacing:0px;fill:#000000;fill-opacity:1;stroke:none;font-family:Liberation Sans;-inkscape-font-specification:Liberation Sans"
       x="125.80645"
       y="151.55573"
       id="text3996"
       sodipodi:linespacing="125%"><tspan
         sodipodi:role="line"
         id="tspan3998"
         x="125.80645"
         y="151.55573" /></text>
    <text
       xml:space="preserve"
       style="font-size:8px;font-style:normal;font-variant:normal;font-weight:normal;font-stretch:normal;line-height:125%;letter-spacing:0px;word-spacing:0px;fill:#000000;fill-opacity:1;stroke:none;font-family:Liberation Sans;-inkscape-font-specification:Liberation Sans"
       x="113.70968"
       y="156.39444"
       id="text4000"
       sodipodi:linespacing="125%"><tspan
         sodipodi:role="line"
         id="tspan4002"
         x="113.70968"
         y="156.39444"
         style="font-size:50px" /></text>
    <flowRoot
       xml:space="preserve"
       id="flowRoot4004"
       style="font-size:8px;font-style:normal;font-variant:normal;font-weight:normal;font-stretch:normal;line-height:125%;letter-spacing:0px;word-spacing:0px;fill:#000000;fill-opacity:1;stroke:none;font-family:Liberation Sans;-inkscape-font-specification:Liberation Sans"><flowRegion
         id="flowRegion4006"><rect
           id="rect4008"
           width="55.645161"
           height="20.967741"
           x="141.12903"
           y="158.00734" /></flowRegion><flowPara
         id="flowPara4010"></flowPara></flowRoot>    <text
       xml:space="preserve"
       style="font-size:8px;font-style:normal;font-variant:normal;font-weight:normal;font-stretch:normal;line-height:125%;letter-spacing:0px;word-spacing:0px;fill:#000000;fill-opacity:1;stroke:none;font-family:Liberation Sans;-inkscape-font-specification:Liberation Sans"
       x="112.90324"
       y="157.2009"
       id="text4012"
       sodipodi:linespacing="125%"><tspan
         sodipodi:role="line"
         id="tspan4014"
         x="112.90324"
         y="157.2009"
         style="font-size:95px">mc</tspan></text>
    <text
       xml:space="preserve"
       style="font-size:8px;font-style:normal;font-variant:normal;font-weight:normal;font-stretch:normal;line-height:125%;letter-spacing:0px;word-spacing:0px;fill:#000000;fill-opacity:1;stroke:none;font-family:Liberation Sans;-inkscape-font-specification:Liberation Sans"
       x="11.451612"
       y="173.32993"
       id="text4016"
       sodipodi:linespacing="125%"><tspan
         sodipodi:role="line"
         id="tspan4018"
         x="11.451612"
         y="173.32993"
         style="font-size:22px">cmcompare Webserver</tspan></text>
    <rect
       style="fill:none;stroke:#000000;stroke-width:0.94170231"
       id="rect4020"
       width="244.41313"
       height="102.47766"
       x="5.6160126"
       y="78.94593" />
  </g>
</svg>
