<?xml version="1.0" encoding="UTF-8" standalone="no"?>
<!-- Created with Inkscape (http://www.inkscape.org/) -->

<svg
   xmlns:dc="http://purl.org/dc/elements/1.1/"
   xmlns:cc="http://creativecommons.org/ns#"
   xmlns:rdf="http://www.w3.org/1999/02/22-rdf-syntax-ns#"
   xmlns:svg="http://www.w3.org/2000/svg"
   xmlns="http://www.w3.org/2000/svg"
   xmlns:sodipodi="http://sodipodi.sourceforge.net/DTD/sodipodi-0.dtd"
   xmlns:inkscape="http://www.inkscape.org/namespaces/inkscape"
   id="svg2"
   version="1.1"
   inkscape:version="0.48.3.1 r9886"
   width="18.983051"
   height="18.898306"
   sodipodi:docname="test2.svg">
  <metadata
     id="metadata8">
    <rdf:RDF>
      <cc:Work
         rdf:about="">
        <dc:format>image/svg+xml</dc:format>
        <dc:type
           rdf:resource="http://purl.org/dc/dcmitype/StillImage" />
        <dc:title></dc:title>
      </cc:Work>
    </rdf:RDF>
  </metadata>
  <defs
     id="defs6" />
  <sodipodi:namedview
     pagecolor="#ffffff"
     bordercolor="#666666"
     borderopacity="1"
     objecttolerance="10"
     gridtolerance="10"
     guidetolerance="10"
     inkscape:pageopacity="0"
     inkscape:pageshadow="2"
     inkscape:window-width="1366"
     inkscape:window-height="710"
     id="namedview4"
     showgrid="false"
     inkscape:zoom="11.8"
     inkscape:cx="10.016948"
     inkscape:cy="15.492584"
     inkscape:window-x="0"
     inkscape:window-y="26"
     inkscape:window-maximized="1"
     inkscape:current-layer="svg2"
     fit-margin-top="0"
     fit-margin-left="0"
     fit-margin-right="0"
     fit-margin-bottom="0" />
  <rect
     style="fill:#000000;fill-opacity:1"
     id="rect3000"
     width="18.983051"
     height="18.898306"
     x="0"
     y="0" />
  <rect
     style="fill:#ffffff;fill-opacity:1"
     id="rect2987"
     width="16.689266"
     height="16.763351"
     x="1.0757059"
     y="1.027941" />
  <path
     sodipodi:type="arc"
     style="fill:#000000;fill-opacity:1"
     id="path3002"
     sodipodi:cx="-15.720339"
     sodipodi:cy="4.7033896"
     sodipodi:rx="1.7372881"
     sodipodi:ry="1.3135593"
     d="m -13.983051,4.7033896 a 1.7372881,1.3135593 0 1 1 -3.474576,0 1.7372881,1.3135593 0 1 1 3.474576,0 z"
     transform="matrix(1.3430894,0,0,1.474828,30.486701,-2.9435341)" />
  <path
     sodipodi:type="arc"
     style="fill:#000000;fill-opacity:1"
     id="path3004"
     sodipodi:cx="-14.279661"
     sodipodi:cy="12.881356"
     sodipodi:rx="2.6694915"
     sodipodi:ry="5.5084743"
     d="m -11.61017,12.881356 a 2.6694915,5.5084743 0 1 1 -5.338983,0 2.6694915,5.5084743 0 1 1 5.338983,0 z"
     transform="matrix(0.93333334,0,0,0.93305439,22.700564,-0.23721731)" />
  <path
     sodipodi:type="arc"
     style="fill:#00ff00;fill-opacity:1"
     id="path3006"
     sodipodi:cx="-13.68644"
     sodipodi:cy="13.050847"
     sodipodi:rx="2.3305085"
     sodipodi:ry="4.4915257"
     d="m -11.355932,13.050847 a 2.3305085,4.4915257 0 1 1 -4.661017,0 2.3305085,4.4915257 0 1 1 4.661017,0 z"
     transform="matrix(0.93333334,0,0,0.93305439,22.146891,-0.47443454)" />
  <path
     sodipodi:type="arc"
     style="fill:#00ff00;fill-opacity:1"
     id="path3008"
     sodipodi:cx="-15.635593"
     sodipodi:cy="4.5338984"
     sodipodi:rx="1.5677966"
     sodipodi:ry="1.1440678"
     d="m -14.067797,4.5338984 a 1.5677966,1.1440678 0 1 1 -3.135593,0 1.5677966,1.1440678 0 1 1 3.135593,0 z"
     transform="matrix(1.136831,0,0,1.3116038,27.147906,-1.9141503)" />
</svg>
