<?xml version="1.0" encoding="UTF-8" standalone="no"?>
<!-- Created with Inkscape (http://www.inkscape.org/) -->

<svg
   xmlns:dc="http://purl.org/dc/elements/1.1/"
   xmlns:cc="http://creativecommons.org/ns#"
   xmlns:rdf="http://www.w3.org/1999/02/22-rdf-syntax-ns#"
   xmlns:svg="http://www.w3.org/2000/svg"
   xmlns="http://www.w3.org/2000/svg"
   xmlns:sodipodi="http://sodipodi.sourceforge.net/DTD/sodipodi-0.dtd"
   xmlns:inkscape="http://www.inkscape.org/namespaces/inkscape"
   width="17.243238"
   height="16.917547"
   id="svg2"
   version="1.1"
   inkscape:version="0.48.3.1 r9886"
   sodipodi:docname="magnifying_glass.png">
  <defs
     id="defs4" />
  <sodipodi:namedview
     id="base"
     pagecolor="#ffffff"
     bordercolor="#666666"
     borderopacity="1.0"
     inkscape:pageopacity="0.0"
     inkscape:pageshadow="2"
     inkscape:zoom="1.88"
     inkscape:cx="-77.889547"
     inkscape:cy="71.022714"
     inkscape:document-units="px"
     inkscape:current-layer="layer1"
     showgrid="false"
     fit-margin-top="0"
     fit-margin-left="0"
     fit-margin-right="0"
     fit-margin-bottom="0"
     inkscape:window-width="1366"
     inkscape:window-height="709"
     inkscape:window-x="0"
     inkscape:window-y="27"
     inkscape:window-maximized="1" />
  <metadata
     id="metadata7">
    <rdf:RDF>
      <cc:Work
         rdf:about="">
        <dc:format>image/svg+xml</dc:format>
        <dc:type
           rdf:resource="http://purl.org/dc/dcmitype/StillImage" />
        <dc:title></dc:title>
      </cc:Work>
    </rdf:RDF>
  </metadata>
  <g
     inkscape:label="Layer 1"
     inkscape:groupmode="layer"
     id="layer1"
     transform="translate(-69.611167,-72.241808)">
    <rect
       style="fill:#cccccc;fill-opacity:1;stroke:#000000;stroke-width:0.16324398;stroke-miterlimit:4;stroke-opacity:1;stroke-dasharray:none"
       id="rect2987"
       width="2.7291975"
       height="9.4078541"
       x="0.4621436"
       y="113.53858"
       transform="matrix(0.71688565,-0.69719077,0.68683464,0.72681372,0,0)" />
    <path
       sodipodi:type="arc"
       style="fill:#808080;fill-opacity:1;stroke:#000000"
       id="path2989"
       sodipodi:cx="36.170212"
       sodipodi:cy="27.894098"
       sodipodi:rx="32.978722"
       sodipodi:ry="21.276596"
       d="M 36.341642,6.6177897 C 54.555041,6.6788723 69.243166,16.254117 69.148488,28.004698 69.05381,39.755279 54.212181,49.23149 35.998782,49.170407 17.785383,49.109324 3.0972576,39.534079 3.1919357,27.783498 3.2863046,16.071299 18.035081,6.6107511 36.189231,6.6175058"
       sodipodi:start="4.7175872"
       sodipodi:end="10.996151"
       transform="matrix(0.2009511,0,0,0.28181054,69.071205,70.515719)"
       sodipodi:open="true" />
    <path
       sodipodi:type="arc"
       style="fill:#0000ff;fill-opacity:1;stroke:#000000;stroke-width:0.89999998;stroke-miterlimit:4;stroke-opacity:1;stroke-dasharray:none"
       id="path3759"
       sodipodi:cx="37.234043"
       sodipodi:cy="38.000481"
       sodipodi:rx="21.276596"
       sodipodi:ry="18.617022"
       d="m 37.344643,19.383711 c 11.750581,0.05345 21.226791,8.431786 21.165709,18.713545 -0.06108,10.281758 -9.636328,18.573442 -21.386909,18.519995 -11.750581,-0.05345 -21.226791,-8.431787 -21.165708,-18.713545 0.06094,-10.2578 9.593433,-18.539721 21.31677,-18.520213"
       sodipodi:start="4.7175872"
       sodipodi:end="10.997476"
       sodipodi:open="true"
       transform="matrix(0.21698473,0,0,0.23103181,68.155237,69.572011)" />
    <path
       sodipodi:type="arc"
       style="fill:#00ffff;fill-opacity:1;stroke:#000000;stroke-width:0.89999998;stroke-miterlimit:4;stroke-opacity:1;stroke-dasharray:none"
       id="path3761"
       sodipodi:cx="36.702129"
       sodipodi:cy="38.000481"
       sodipodi:rx="12.234042"
       sodipodi:ry="12.234042"
       d="m 36.765724,25.766604 c 6.756584,0.03512 12.205405,5.540888 12.170282,12.297472 -0.03512,6.756583 -5.540888,12.205404 -12.297472,12.170282 -1.647155,-0.0086 -3.27562,-0.34966 -4.787755,-1.00284 l 4.85135,-11.231037 z"
       sodipodi:start="4.7175872"
       sodipodi:end="8.261732"
       transform="matrix(-0.1132716,0,0,0.22224524,77.337641,69.839999)" />
    <path
       sodipodi:type="arc"
       style="fill:#ffffff;fill-opacity:1;stroke:#000000;stroke-width:0.89999998;stroke-miterlimit:4;stroke-opacity:1;stroke-dasharray:none"
       id="path3761-1"
       sodipodi:cx="36.702129"
       sodipodi:cy="38.000481"
       sodipodi:rx="12.234042"
       sodipodi:ry="12.234042"
       d="m 36.765724,25.766604 c 6.756584,0.03512 12.205405,5.540888 12.170282,12.297472 -0.03512,6.756583 -5.540888,12.205404 -12.297472,12.170282 -1.647155,-0.0086 -3.27562,-0.34966 -4.787755,-1.00284 l 4.85135,-11.231037 z"
       sodipodi:start="4.7175872"
       sodipodi:end="8.261732"
       transform="matrix(-0.05214093,0,0,0.12442332,74.743134,73.603981)" />
  </g>
</svg>
